<svg width="317" height="91" viewBox="0 0 317 91" fill="none" xmlns="http://www.w3.org/2000/svg">
<path d="M3.52 27.92H31.48C32.44 27.92 33.24 28.28 33.88 29C34.52 29.64 34.84 30.44 34.84 31.4C34.84 32.28 34.52 33.04 33.88 33.68C33.24 34.32 32.44 34.64 31.48 34.64H3.52C2.56 34.64 1.72 34.32 1 33.68C0.36 32.96 0.0400001 32.16 0.0400001 31.28C0.0400001 30.32 0.36 29.52 1 28.88C1.72 28.24 2.56 27.92 3.52 27.92ZM15.88 11C16.92 11 17.76 11.36 18.4 12.08C19.12 12.8 19.48 13.64 19.48 14.6V74.84C19.48 77.08 19.76 78.76 20.32 79.88C20.96 81 21.76 81.76 22.72 82.16C23.68 82.48 24.64 82.64 25.6 82.64C26.24 82.64 26.8 82.56 27.28 82.4C27.84 82.16 28.44 82.04 29.08 82.04C29.8 82.04 30.4 82.32 30.88 82.88C31.44 83.44 31.72 84.16 31.72 85.04C31.72 86.16 31.08 87.12 29.8 87.92C28.52 88.64 27 89 25.24 89C24.52 89 23.44 88.96 22 88.88C20.56 88.72 19.08 88.28 17.56 87.56C16.04 86.76 14.76 85.4 13.72 83.48C12.76 81.56 12.28 78.8 12.28 75.2V14.6C12.28 13.64 12.6 12.8 13.24 12.08C13.96 11.36 14.84 11 15.88 11ZM98.4241 27.68C99.4641 27.68 100.304 28.04 100.944 28.76C101.664 29.48 102.024 30.36 102.024 31.4V85.4C102.024 86.36 101.664 87.2 100.944 87.92C100.224 88.64 99.3841 89 98.4241 89C97.3841 89 96.5041 88.64 95.7841 87.92C95.1441 87.2 94.8241 86.36 94.8241 85.4V71.12L96.8641 70.16C96.8641 72.4 96.2241 74.68 94.9441 77C93.7441 79.32 92.0641 81.48 89.9041 83.48C87.7441 85.48 85.1841 87.12 82.2241 88.4C79.3441 89.6 76.2241 90.2 72.8641 90.2C67.4241 90.2 62.5441 88.8 58.2241 86C53.9841 83.2 50.6241 79.36 48.1441 74.48C45.7441 69.6 44.5441 64.12 44.5441 58.04C44.5441 51.8 45.7841 46.32 48.2641 41.6C50.7441 36.8 54.1041 33.04 58.3441 30.32C62.5841 27.6 67.3841 26.24 72.7441 26.24C76.1841 26.24 79.3841 26.84 82.3441 28.04C85.3841 29.24 88.0241 30.88 90.2641 32.96C92.5041 35.04 94.2241 37.44 95.4241 40.16C96.7041 42.8 97.3441 45.56 97.3441 48.44L94.8241 46.64V31.4C94.8241 30.36 95.1441 29.48 95.7841 28.76C96.5041 28.04 97.3841 27.68 98.4241 27.68ZM73.4641 83.48C77.7041 83.48 81.4641 82.4 84.7441 80.24C88.0241 78 90.5841 74.96 92.4241 71.12C94.3441 67.2 95.3041 62.84 95.3041 58.04C95.3041 53.32 94.3441 49.08 92.4241 45.32C90.5841 41.56 88.0241 38.56 84.7441 36.32C81.4641 34.08 77.7041 32.96 73.4641 32.96C69.3041 32.96 65.5441 34.04 62.1841 36.2C58.9041 38.36 56.3041 41.32 54.3841 45.08C52.5441 48.84 51.6241 53.16 51.6241 58.04C51.6241 62.84 52.5441 67.2 54.3841 71.12C56.3041 74.96 58.9041 78 62.1841 80.24C65.4641 82.4 69.2241 83.48 73.4641 83.48ZM117.438 79.28C116.798 78.32 116.478 77.4 116.478 76.52C116.558 75.56 117.078 74.8 118.038 74.24C118.678 73.68 119.398 73.44 120.198 73.52C121.078 73.6 121.878 74 122.598 74.72C124.758 77.52 127.358 79.8 130.398 81.56C133.518 83.24 137.198 84.08 141.438 84.08C143.678 84.08 145.878 83.72 148.038 83C150.278 82.2 152.118 81.04 153.558 79.52C154.998 77.92 155.718 75.92 155.718 73.52C155.718 71.04 154.998 69.04 153.558 67.52C152.118 66 150.238 64.8 147.918 63.92C145.678 63.04 143.278 62.28 140.718 61.64C137.998 60.92 135.358 60.12 132.798 59.24C130.238 58.28 127.958 57.12 125.958 55.76C124.038 54.32 122.478 52.6 121.278 50.6C120.078 48.6 119.478 46.16 119.478 43.28C119.478 39.92 120.398 36.96 122.238 34.4C124.078 31.84 126.558 29.84 129.678 28.4C132.878 26.96 136.478 26.24 140.478 26.24C142.478 26.24 144.638 26.52 146.958 27.08C149.278 27.56 151.558 28.4 153.798 29.6C156.038 30.8 158.038 32.44 159.798 34.52C160.518 35.24 160.878 36.08 160.878 37.04C160.878 37.92 160.478 38.72 159.678 39.44C159.038 39.92 158.278 40.16 157.398 40.16C156.598 40.16 155.918 39.84 155.358 39.2C153.438 37.04 151.158 35.4 148.518 34.28C145.878 33.16 143.038 32.6 139.998 32.6C137.678 32.6 135.478 33 133.398 33.8C131.398 34.52 129.718 35.64 128.358 37.16C126.998 38.68 126.318 40.68 126.318 43.16C126.478 45.48 127.278 47.36 128.718 48.8C130.238 50.24 132.198 51.44 134.598 52.4C137.078 53.36 139.838 54.24 142.878 55.04C145.438 55.68 147.878 56.44 150.198 57.32C152.598 58.2 154.678 59.32 156.438 60.68C158.278 61.96 159.718 63.6 160.758 65.6C161.878 67.6 162.438 70.12 162.438 73.16C162.438 76.68 161.438 79.72 159.438 82.28C157.518 84.84 154.918 86.8 151.638 88.16C148.358 89.52 144.718 90.2 140.718 90.2C136.398 90.2 132.198 89.36 128.118 87.68C124.118 86 120.558 83.2 117.438 79.28ZM181.488 89C180.448 89 179.568 88.64 178.848 87.92C178.208 87.2 177.888 86.36 177.888 85.4V3.8C177.888 2.83999 178.208 1.99999 178.848 1.28C179.568 0.559999 180.448 0.199999 181.488 0.199999C182.528 0.199999 183.368 0.559999 184.008 1.28C184.728 1.99999 185.088 2.83999 185.088 3.8V85.4C185.088 86.36 184.728 87.2 184.008 87.92C183.368 88.64 182.528 89 181.488 89ZM222.288 27.44C223.168 27.44 223.968 27.84 224.688 28.64C225.408 29.36 225.768 30.16 225.768 31.04C225.768 32.08 225.328 33 224.448 33.8L184.128 68.12L183.768 59.6L219.768 28.64C220.488 27.84 221.328 27.44 222.288 27.44ZM223.248 89C222.208 89 221.328 88.56 220.608 87.68L193.248 58.64L198.648 53.72L225.768 82.64C226.488 83.44 226.848 84.36 226.848 85.4C226.848 86.52 226.408 87.4 225.528 88.04C224.648 88.68 223.888 89 223.248 89ZM242.346 89C240.986 89 239.946 88.56 239.226 87.68C238.506 86.8 238.146 85.68 238.146 84.32V81.8C238.146 80.36 238.506 79.24 239.226 78.44C239.946 77.64 240.986 77.24 242.346 77.24H243.186C244.546 77.24 245.586 77.64 246.306 78.44C247.026 79.24 247.386 80.36 247.386 81.8V84.32C247.386 85.68 247.026 86.8 246.306 87.68C245.586 88.56 244.546 89 243.186 89H242.346ZM270.026 85.4C270.026 86.36 269.666 87.2 268.946 87.92C268.226 88.64 267.386 89 266.426 89C265.386 89 264.506 88.64 263.786 87.92C263.146 87.2 262.826 86.36 262.826 85.4V30.2C262.826 29.24 263.146 28.4 263.786 27.68C264.506 26.96 265.386 26.6 266.426 26.6C267.466 26.6 268.306 26.96 268.946 27.68C269.666 28.4 270.026 29.24 270.026 30.2V85.4ZM266.426 18.56C264.746 18.56 263.466 18.2 262.586 17.48C261.786 16.68 261.386 15.56 261.386 14.12V12.92C261.386 11.48 261.826 10.4 262.706 9.68C263.666 8.88 264.946 8.48 266.546 8.48C268.066 8.48 269.226 8.88 270.026 9.68C270.906 10.4 271.346 11.48 271.346 12.92V14.12C271.346 15.56 270.906 16.68 270.026 17.48C269.226 18.2 268.026 18.56 266.426 18.56ZM284.77 27.92H312.73C313.69 27.92 314.49 28.28 315.13 29C315.77 29.64 316.09 30.44 316.09 31.4C316.09 32.28 315.77 33.04 315.13 33.68C314.49 34.32 313.69 34.64 312.73 34.64H284.77C283.81 34.64 282.97 34.32 282.25 33.68C281.61 32.96 281.29 32.16 281.29 31.28C281.29 30.32 281.61 29.52 282.25 28.88C282.97 28.24 283.81 27.92 284.77 27.92ZM297.13 11C298.17 11 299.01 11.36 299.65 12.08C300.37 12.8 300.73 13.64 300.73 14.6V74.84C300.73 77.08 301.01 78.76 301.57 79.88C302.21 81 303.01 81.76 303.97 82.16C304.93 82.48 305.89 82.64 306.85 82.64C307.49 82.64 308.05 82.56 308.53 82.4C309.09 82.16 309.69 82.04 310.33 82.04C311.05 82.04 311.65 82.32 312.13 82.88C312.69 83.44 312.97 84.16 312.97 85.04C312.97 86.16 312.33 87.12 311.05 87.92C309.77 88.64 308.25 89 306.49 89C305.77 89 304.69 88.96 303.25 88.88C301.81 88.72 300.33 88.28 298.81 87.56C297.29 86.76 296.01 85.4 294.97 83.48C294.01 81.56 293.53 78.8 293.53 75.2V14.6C293.53 13.64 293.85 12.8 294.49 12.08C295.21 11.36 296.09 11 297.13 11Z" fill="black"/>
</svg>
